<?xml version="1.0" encoding="UTF-8" standalone="no"?>
<!DOCTYPE svg PUBLIC "-//W3C//DTD SVG 1.1//EN"
 "http://www.w3.org/Graphics/SVG/1.1/DTD/svg11.dtd">
<!-- Generated by graphviz version 2.40.1 (20161225.0304)
 -->
<!-- Title: %3 Pages: 1 -->
<svg width="629pt" height="98pt"
 viewBox="0.00 0.00 629.34 98.00" xmlns="http://www.w3.org/2000/svg" xmlns:xlink="http://www.w3.org/1999/xlink">
<g id="graph0" class="graph" transform="scale(1 1) rotate(0) translate(4 94)">
<title>%3</title>
<g id="clust1" class="cluster">
<title>cluster_es2015</title>
<polygon fill="transparent" stroke="#000000" points="8,-8 8,-82 349.1763,-82 349.1763,-8 8,-8"/>
<text text-anchor="middle" x="178.5882" y="-66.8" font-family="Times,serif" font-size="14.00" fill="#000000">ES2015</text>
</g>
<g id="clust2" class="cluster">
<title>cluster_es2017</title>
<polygon fill="transparent" stroke="#000000" points="369.1763,-8 369.1763,-82 445.6605,-82 445.6605,-8 369.1763,-8"/>
<text text-anchor="middle" x="407.4184" y="-66.8" font-family="Times,serif" font-size="14.00" fill="#000000">ES2017</text>
</g>
<g id="clust3" class="cluster">
<title>cluster_es2018</title>
<polygon fill="transparent" stroke="#000000" points="465.6605,-8 465.6605,-82 613.3416,-82 613.3416,-8 465.6605,-8"/>
<text text-anchor="middle" x="539.501" y="-66.8" font-family="Times,serif" font-size="14.00" fill="#000000">ES2018</text>
</g>
<!-- symbols -->
<g id="node1" class="node">
<title>symbols</title>
<ellipse fill="none" stroke="#000000" cx="55.5908" cy="-34" rx="39.6818" ry="18"/>
<text text-anchor="middle" x="55.5908" y="-29.8" font-family="Times,serif" font-size="14.00" fill="#000000">symbols</text>
</g>
<!-- iterables -->
<g id="node2" class="node">
<title>iterables</title>
<ellipse fill="none" stroke="#000000" cx="171.2431" cy="-34" rx="40.123" ry="18"/>
<text text-anchor="middle" x="171.2431" y="-29.8" font-family="Times,serif" font-size="14.00" fill="#000000">iterables</text>
</g>
<!-- symbols&#45;&gt;iterables -->
<g id="edge1" class="edge">
<title>symbols&#45;&gt;iterables</title>
<path fill="none" stroke="#000000" d="M95.3917,-34C103.5674,-34 112.2772,-34 120.7718,-34"/>
<polygon fill="#000000" stroke="#000000" points="120.9762,-37.5001 130.9762,-34 120.9761,-30.5001 120.9762,-37.5001"/>
</g>
<!-- generators -->
<g id="node3" class="node">
<title>generators</title>
<ellipse fill="none" stroke="#000000" cx="294.2404" cy="-34" rx="46.8719" ry="18"/>
<text text-anchor="middle" x="294.2404" y="-29.8" font-family="Times,serif" font-size="14.00" fill="#000000">generators</text>
</g>
<!-- iterables&#45;&gt;generators -->
<g id="edge2" class="edge">
<title>iterables&#45;&gt;generators</title>
<path fill="none" stroke="#000000" d="M211.517,-34C219.6747,-34 228.4004,-34 237.0137,-34"/>
<polygon fill="#000000" stroke="#000000" points="237.0327,-37.5001 247.0327,-34 237.0327,-30.5001 237.0327,-37.5001"/>
</g>
<!-- async -->
<g id="node4" class="node">
<title>async</title>
<ellipse fill="none" stroke="#000000" cx="407.4184" cy="-34" rx="30.4862" ry="18"/>
<text text-anchor="middle" x="407.4184" y="-29.8" font-family="Times,serif" font-size="14.00" fill="#000000">async</text>
</g>
<!-- generators&#45;&gt;async -->
<g id="edge3" class="edge">
<title>generators&#45;&gt;async</title>
<path fill="none" stroke="#000000" d="M341.2548,-34C349.7101,-34 358.459,-34 366.7168,-34"/>
<polygon fill="#000000" stroke="#000000" points="366.8549,-37.5001 376.8549,-34 366.8549,-30.5001 366.8549,-37.5001"/>
</g>
<!-- asyncgen -->
<g id="node5" class="node">
<title>asyncgen</title>
<ellipse fill="none" stroke="#000000" cx="539.501" cy="-34" rx="65.6814" ry="18"/>
<text text-anchor="middle" x="539.501" y="-29.8" font-family="Times,serif" font-size="14.00" fill="#000000">async generator</text>
</g>
<!-- async&#45;&gt;asyncgen -->
<g id="edge4" class="edge">
<title>async&#45;&gt;asyncgen</title>
<path fill="none" stroke="#000000" d="M437.7208,-34C445.5234,-34 454.2783,-34 463.2921,-34"/>
<polygon fill="#000000" stroke="#000000" points="463.5421,-37.5001 473.5421,-34 463.5421,-30.5001 463.5421,-37.5001"/>
</g>
</g>
</svg>
