<?xml version="1.0" encoding="UTF-8" standalone="no"?>
<!DOCTYPE svg PUBLIC "-//W3C//DTD SVG 1.1//EN"
 "http://www.w3.org/Graphics/SVG/1.1/DTD/svg11.dtd">
<!-- Generated by graphviz version 2.40.1 (20161225.0304)
 -->
<!-- Title: %3 Pages: 1 -->
<svg width="448pt" height="98pt"
 viewBox="0.00 0.00 447.54 98.00" xmlns="http://www.w3.org/2000/svg" xmlns:xlink="http://www.w3.org/1999/xlink">
<g id="graph0" class="graph" transform="scale(1 1) rotate(0) translate(4 94)">
<title>%3</title>
<!-- e1 -->
<g id="node1" class="node">
<title>e1</title>
<ellipse fill="none" stroke="#000000" cx="29.2576" cy="-45" rx="29.0172" ry="18"/>
<text text-anchor="middle" x="29.2576" y="-40.8" font-family="Times,serif" font-size="14.00" fill="#000000">event</text>
</g>
<!-- e2 -->
<g id="node2" class="node">
<title>e2</title>
<ellipse fill="none" stroke="#000000" cx="123.7728" cy="-45" rx="29.0172" ry="18"/>
<text text-anchor="middle" x="123.7728" y="-40.8" font-family="Times,serif" font-size="14.00" fill="#000000">event</text>
</g>
<!-- e1&#45;&gt;e2 -->
<g id="edge1" class="edge">
<title>e1&#45;&gt;e2</title>
<path fill="none" stroke="#000000" d="M58.6447,-45C66.735,-45 75.6449,-45 84.2084,-45"/>
<polygon fill="#000000" stroke="#000000" points="84.4039,-48.5001 94.4038,-45 84.4038,-41.5001 84.4039,-48.5001"/>
</g>
<!-- e3 -->
<g id="node3" class="node">
<title>e3</title>
<ellipse fill="none" stroke="#000000" cx="218.2879" cy="-45" rx="29.0172" ry="18"/>
<text text-anchor="middle" x="218.2879" y="-40.8" font-family="Times,serif" font-size="14.00" fill="#000000">event</text>
</g>
<!-- e2&#45;&gt;e3 -->
<g id="edge2" class="edge">
<title>e2&#45;&gt;e3</title>
<path fill="none" stroke="#000000" d="M153.1599,-45C161.2502,-45 170.1601,-45 178.7236,-45"/>
<polygon fill="#000000" stroke="#000000" points="178.919,-48.5001 188.919,-45 178.919,-41.5001 178.919,-48.5001"/>
</g>
<!-- e4 -->
<g id="node4" class="node">
<title>e4</title>
<ellipse fill="none" stroke="#000000" cx="312.8031" cy="-45" rx="29.0172" ry="18"/>
<text text-anchor="middle" x="312.8031" y="-40.8" font-family="Times,serif" font-size="14.00" fill="#000000">event</text>
</g>
<!-- e3&#45;&gt;e4 -->
<g id="edge3" class="edge">
<title>e3&#45;&gt;e4</title>
<path fill="none" stroke="#000000" d="M247.675,-45C255.7654,-45 264.6752,-45 273.2387,-45"/>
<polygon fill="#000000" stroke="#000000" points="273.4342,-48.5001 283.4342,-45 273.4342,-41.5001 273.4342,-48.5001"/>
</g>
<!-- finish -->
<g id="node5" class="node">
<title>finish</title>
<ellipse fill="none" stroke="#000000" cx="408.7994" cy="-72" rx="29.5361" ry="18"/>
<text text-anchor="middle" x="408.7994" y="-67.8" font-family="Times,serif" font-size="14.00" fill="#000000">finish</text>
</g>
<!-- e4&#45;&gt;finish -->
<g id="edge4" class="edge">
<title>e4&#45;&gt;finish</title>
<path fill="none" stroke="#000000" d="M339.5434,-52.521C349.4652,-55.3116 360.9058,-58.5294 371.5934,-61.5354"/>
<polygon fill="#000000" stroke="#000000" points="370.9613,-64.9934 381.5355,-64.3317 372.8566,-58.2548 370.9613,-64.9934"/>
</g>
<!-- throw -->
<g id="node6" class="node">
<title>throw</title>
<ellipse fill="none" stroke="#000000" cx="408.7994" cy="-18" rx="30.9793" ry="18"/>
<text text-anchor="middle" x="408.7994" y="-13.8" font-family="Times,serif" font-size="14.00" fill="#000000">throw</text>
</g>
<!-- e4&#45;&gt;throw -->
<g id="edge5" class="edge">
<title>e4&#45;&gt;throw</title>
<path fill="none" stroke="#000000" d="M339.5434,-37.479C349.2971,-34.7357 360.5184,-31.5796 371.0493,-28.6176"/>
<polygon fill="#000000" stroke="#000000" points="372.1852,-31.934 380.864,-25.8571 370.2899,-25.1955 372.1852,-31.934"/>
</g>
</g>
</svg>
