<?xml version="1.0" encoding="UTF-8" standalone="no"?>
<!DOCTYPE svg PUBLIC "-//W3C//DTD SVG 1.1//EN"
 "http://www.w3.org/Graphics/SVG/1.1/DTD/svg11.dtd">
<!-- Generated by graphviz version 2.40.1 (20161225.0304)
 -->
<!-- Title: %3 Pages: 1 -->
<svg width="629pt" height="112pt"
 viewBox="0.00 0.00 629.16 112.00" xmlns="http://www.w3.org/2000/svg" xmlns:xlink="http://www.w3.org/1999/xlink">
<g id="graph0" class="graph" transform="scale(1 1) rotate(0) translate(4 108)">
<title>%3</title>
<g id="clust1" class="cluster">
<title>cluster_low</title>
<polygon fill="transparent" stroke="#000000" points="8,-15 8,-89 349.1763,-89 349.1763,-15 8,-15"/>
<text text-anchor="middle" x="178.5882" y="-73.8" font-family="Times,serif" font-size="14.00" fill="#000000">low level</text>
</g>
<g id="clust2" class="cluster">
<title>cluster_high</title>
<polygon fill="transparent" stroke="#000000" points="369.1763,-8 369.1763,-96 613.1631,-96 613.1631,-8 369.1763,-8"/>
<text text-anchor="middle" x="491.1697" y="-80.8" font-family="Times,serif" font-size="14.00" fill="#000000">high level</text>
</g>
<!-- symbols -->
<g id="node1" class="node">
<title>symbols</title>
<ellipse fill="none" stroke="#000000" cx="55.5908" cy="-41" rx="39.6818" ry="18"/>
<text text-anchor="middle" x="55.5908" y="-36.8" font-family="Times,serif" font-size="14.00" fill="#000000">symbols</text>
</g>
<!-- iterables -->
<g id="node2" class="node">
<title>iterables</title>
<ellipse fill="none" stroke="#000000" cx="171.2431" cy="-41" rx="40.123" ry="18"/>
<text text-anchor="middle" x="171.2431" y="-36.8" font-family="Times,serif" font-size="14.00" fill="#000000">iterables</text>
</g>
<!-- symbols&#45;&gt;iterables -->
<g id="edge1" class="edge">
<title>symbols&#45;&gt;iterables</title>
<path fill="none" stroke="#000000" d="M95.3917,-41C103.5674,-41 112.2772,-41 120.7718,-41"/>
<polygon fill="#000000" stroke="#000000" points="120.9762,-44.5001 130.9762,-41 120.9761,-37.5001 120.9762,-44.5001"/>
</g>
<!-- generators -->
<g id="node3" class="node">
<title>generators</title>
<ellipse fill="none" stroke="#000000" cx="294.2404" cy="-41" rx="46.8719" ry="18"/>
<text text-anchor="middle" x="294.2404" y="-36.8" font-family="Times,serif" font-size="14.00" fill="#000000">generators</text>
</g>
<!-- iterables&#45;&gt;generators -->
<g id="edge2" class="edge">
<title>iterables&#45;&gt;generators</title>
<path fill="none" stroke="#000000" d="M211.517,-41C219.6747,-41 228.4004,-41 237.0137,-41"/>
<polygon fill="#000000" stroke="#000000" points="237.0327,-44.5001 247.0327,-41 237.0327,-37.5001 237.0327,-44.5001"/>
</g>
<!-- async -->
<g id="node4" class="node">
<title>async</title>
<ellipse fill="none" stroke="#000000" cx="407.4184" cy="-41" rx="30.4862" ry="18"/>
<text text-anchor="middle" x="407.4184" y="-36.8" font-family="Times,serif" font-size="14.00" fill="#000000">async</text>
</g>
<!-- generators&#45;&gt;async -->
<g id="edge3" class="edge">
<title>generators&#45;&gt;async</title>
<path fill="none" stroke="#000000" d="M341.2548,-41C349.7101,-41 358.459,-41 366.7168,-41"/>
<polygon fill="#000000" stroke="#000000" points="366.8549,-44.5001 376.8549,-41 366.8549,-37.5001 366.8549,-44.5001"/>
</g>
<!-- asyncgen -->
<g id="node5" class="node">
<title>asyncgen</title>
<ellipse fill="none" stroke="#000000" stroke-dasharray="5,2" cx="539.4118" cy="-41" rx="65.5035" ry="25.4118"/>
<text text-anchor="middle" x="539.4118" y="-43.8" font-family="Times,serif" font-size="14.00" fill="#000000">asynchronous</text>
<text text-anchor="middle" x="539.4118" y="-29.8" font-family="Times,serif" font-size="14.00" fill="#000000">generator</text>
</g>
<!-- async&#45;&gt;asyncgen -->
<g id="edge4" class="edge">
<title>async&#45;&gt;asyncgen</title>
<path fill="none" stroke="#000000" stroke-dasharray="5,2" d="M437.7004,-41C445.4976,-41 454.2466,-41 463.2544,-41"/>
<polygon fill="#000000" stroke="#000000" points="463.4975,-44.5001 473.4974,-41 463.4974,-37.5001 463.4975,-44.5001"/>
</g>
</g>
</svg>
